<svg xmlns="http://www.w3.org/2000/svg" xmlns:xlink="http://www.w3.org/1999/xlink" width="378" zoomAndPan="magnify" viewBox="0 0 283.5 283.500005" height="378" preserveAspectRatio="xMidYMid meet" version="1.0"><defs><clipPath id="14b32c155d"><path d="M 0 0 L 283 0 L 283 283 L 0 283 Z M 0 0 " clip-rule="nonzero"/></clipPath><clipPath id="b1ea0cf5d2"><path d="M 28.300781 77 L 238 77 L 238 222.621094 L 28.300781 222.621094 Z M 28.300781 77 " clip-rule="nonzero"/></clipPath><clipPath id="b4827e96c2"><path d="M 45 60.136719 L 254.429688 60.136719 L 254.429688 206 L 45 206 Z M 45 60.136719 " clip-rule="nonzero"/></clipPath><clipPath id="66d041a2c6"><path d="M 84 144 L 174 144 L 174 222.621094 L 84 222.621094 Z M 84 144 " clip-rule="nonzero"/></clipPath><clipPath id="62047485b8"><rect x="0" width="283" y="0" height="283"/></clipPath></defs><path fill="#ffffff" d="M 0 0 L 283 0 L 283 283 L 0 283 Z M 0 0 " fill-opacity="1" fill-rule="nonzero"/><g transform="matrix(1, 0, 0, 1, 0, 0.000000000000005262)"><g clip-path="url(#62047485b8)"><g clip-path="url(#14b32c155d)"><rect x="-62.37" width="408.24" fill="#ffffff" height="408.240007" y="-62.370001" fill-opacity="1"/></g><g clip-path="url(#b1ea0cf5d2)"><path fill="#000000" d="M 220.058594 222.464844 L 45.878906 222.464844 C 45.300781 222.464844 44.726562 222.4375 44.15625 222.382812 C 43.582031 222.324219 43.011719 222.242188 42.449219 222.128906 C 41.882812 222.015625 41.324219 221.878906 40.773438 221.710938 C 40.222656 221.542969 39.683594 221.347656 39.152344 221.128906 C 38.617188 220.910156 38.097656 220.664062 37.589844 220.390625 C 37.082031 220.121094 36.589844 219.824219 36.113281 219.503906 C 35.632812 219.183594 35.171875 218.84375 34.726562 218.476562 C 34.28125 218.113281 33.855469 217.726562 33.449219 217.320312 C 33.042969 216.914062 32.65625 216.488281 32.289062 216.042969 C 31.925781 215.597656 31.582031 215.136719 31.261719 214.65625 C 30.941406 214.179688 30.648438 213.683594 30.375 213.175781 C 30.105469 212.671875 29.859375 212.148438 29.636719 211.617188 C 29.417969 211.085938 29.222656 210.546875 29.058594 209.996094 C 28.890625 209.445312 28.75 208.886719 28.636719 208.320312 C 28.527344 207.757812 28.441406 207.1875 28.382812 206.617188 C 28.328125 206.042969 28.300781 205.46875 28.300781 204.894531 L 28.300781 94.613281 C 28.300781 94.035156 28.328125 93.460938 28.382812 92.890625 C 28.441406 92.316406 28.527344 91.75 28.636719 91.183594 C 28.75 90.621094 28.890625 90.0625 29.058594 89.511719 C 29.222656 88.960938 29.417969 88.417969 29.636719 87.886719 C 29.859375 87.355469 30.105469 86.835938 30.375 86.328125 C 30.648438 85.820312 30.941406 85.328125 31.261719 84.847656 C 31.582031 84.371094 31.925781 83.910156 32.289062 83.464844 C 32.65625 83.019531 33.042969 82.59375 33.449219 82.1875 C 33.855469 81.777344 34.28125 81.394531 34.726562 81.027344 C 35.171875 80.664062 35.632812 80.320312 36.113281 80 C 36.589844 79.679688 37.082031 79.386719 37.589844 79.113281 C 38.097656 78.84375 38.617188 78.597656 39.152344 78.375 C 39.683594 78.15625 40.222656 77.960938 40.773438 77.796875 C 41.324219 77.628906 41.882812 77.488281 42.449219 77.375 C 43.011719 77.265625 43.582031 77.179688 44.15625 77.125 C 44.726562 77.066406 45.300781 77.039062 45.878906 77.039062 L 220.058594 77.039062 C 220.632812 77.039062 221.207031 77.066406 221.78125 77.125 C 222.355469 77.179688 222.921875 77.265625 223.488281 77.375 C 224.050781 77.488281 224.609375 77.628906 225.160156 77.796875 C 225.710938 77.960938 226.253906 78.15625 226.785156 78.375 C 227.316406 78.597656 227.835938 78.84375 228.34375 79.113281 C 228.851562 79.386719 229.34375 79.679688 229.824219 80 C 230.304688 80.320312 230.765625 80.664062 231.210938 81.027344 C 231.65625 81.394531 232.082031 81.777344 232.488281 82.1875 C 232.894531 82.59375 233.28125 83.019531 233.644531 83.464844 C 234.011719 83.910156 234.355469 84.371094 234.671875 84.847656 C 234.992188 85.328125 235.289062 85.820312 235.5625 86.328125 C 235.832031 86.835938 236.078125 87.355469 236.296875 87.886719 C 236.519531 88.417969 236.710938 88.960938 236.878906 89.511719 C 237.046875 90.0625 237.1875 90.621094 237.296875 91.183594 C 237.410156 91.75 237.496094 92.316406 237.550781 92.890625 C 237.609375 93.460938 237.636719 94.035156 237.636719 94.613281 L 237.636719 204.914062 C 237.636719 205.488281 237.605469 206.0625 237.550781 206.632812 C 237.492188 207.207031 237.40625 207.773438 237.296875 208.339844 C 237.183594 208.902344 237.042969 209.460938 236.875 210.007812 C 236.707031 210.558594 236.511719 211.101562 236.292969 211.632812 C 236.070312 212.164062 235.824219 212.683594 235.554688 213.1875 C 235.28125 213.695312 234.988281 214.1875 234.667969 214.667969 C 234.347656 215.144531 234.003906 215.605469 233.640625 216.050781 C 233.273438 216.496094 232.886719 216.921875 232.480469 217.328125 C 232.074219 217.734375 231.648438 218.117188 231.203125 218.484375 C 230.757812 218.847656 230.296875 219.191406 229.820312 219.507812 C 229.339844 219.828125 228.847656 220.125 228.339844 220.394531 C 227.832031 220.664062 227.3125 220.910156 226.78125 221.128906 C 226.25 221.351562 225.707031 221.542969 225.15625 221.710938 C 224.605469 221.878906 224.050781 222.015625 223.484375 222.128906 C 222.921875 222.242188 222.351562 222.324219 221.78125 222.382812 C 221.207031 222.4375 220.632812 222.464844 220.058594 222.464844 Z M 45.878906 84.65625 C 45.222656 84.65625 44.574219 84.722656 43.929688 84.847656 C 43.289062 84.976562 42.664062 85.164062 42.058594 85.417969 C 41.453125 85.667969 40.878906 85.972656 40.335938 86.339844 C 39.789062 86.703125 39.285156 87.117188 38.824219 87.578125 C 38.359375 88.042969 37.945312 88.546875 37.582031 89.089844 C 37.21875 89.632812 36.910156 90.210938 36.660156 90.8125 C 36.410156 91.417969 36.21875 92.042969 36.09375 92.683594 C 35.964844 93.328125 35.902344 93.976562 35.902344 94.632812 L 35.902344 204.914062 C 35.902344 205.566406 35.964844 206.214844 36.09375 206.859375 C 36.21875 207.5 36.410156 208.125 36.660156 208.730469 C 36.910156 209.335938 37.21875 209.910156 37.582031 210.453125 C 37.945312 211 38.359375 211.503906 38.824219 211.964844 C 39.285156 212.429688 39.789062 212.84375 40.335938 213.207031 C 40.878906 213.570312 41.453125 213.875 42.058594 214.128906 C 42.664062 214.378906 43.289062 214.566406 43.929688 214.695312 C 44.574219 214.824219 45.222656 214.886719 45.878906 214.886719 L 220.058594 214.886719 C 220.714844 214.886719 221.363281 214.824219 222.003906 214.695312 C 222.648438 214.566406 223.269531 214.378906 223.875 214.128906 C 224.480469 213.875 225.058594 213.570312 225.601562 213.207031 C 226.144531 212.84375 226.648438 212.429688 227.113281 211.964844 C 227.578125 211.503906 227.988281 211 228.355469 210.453125 C 228.71875 209.910156 229.023438 209.335938 229.277344 208.730469 C 229.527344 208.125 229.714844 207.5 229.84375 206.859375 C 229.972656 206.214844 230.035156 205.566406 230.035156 204.914062 L 230.035156 94.613281 C 230.035156 93.957031 229.972656 93.308594 229.84375 92.667969 C 229.714844 92.023438 229.527344 91.398438 229.277344 90.796875 C 229.023438 90.191406 228.71875 89.617188 228.355469 89.070312 C 227.988281 88.527344 227.578125 88.023438 227.113281 87.558594 C 226.648438 87.097656 226.144531 86.683594 225.601562 86.320312 C 225.058594 85.957031 224.480469 85.648438 223.875 85.398438 C 223.269531 85.148438 222.648438 84.957031 222.003906 84.828125 C 221.363281 84.703125 220.714844 84.636719 220.058594 84.636719 Z M 45.878906 84.65625 " fill-opacity="1" fill-rule="nonzero"/></g><g clip-path="url(#b4827e96c2)"><path fill="#000000" d="M 234.773438 205.652344 L 233.820312 205.652344 C 233.316406 205.652344 232.832031 205.558594 232.367188 205.363281 C 231.902344 205.171875 231.492188 204.898438 231.132812 204.539062 C 230.777344 204.183594 230.503906 203.773438 230.308594 203.308594 C 230.117188 202.84375 230.019531 202.359375 230.019531 201.855469 C 230.019531 201.351562 230.117188 200.867188 230.308594 200.398438 C 230.503906 199.933594 230.777344 199.523438 231.132812 199.167969 C 231.492188 198.8125 231.902344 198.535156 232.367188 198.34375 C 232.832031 198.152344 233.316406 198.054688 233.820312 198.054688 L 234.773438 198.054688 C 235.5625 198.054688 236.347656 197.976562 237.121094 197.820312 C 237.898438 197.664062 238.652344 197.433594 239.382812 197.132812 C 240.113281 196.828125 240.808594 196.457031 241.464844 196.015625 C 242.125 195.578125 242.730469 195.078125 243.292969 194.519531 C 243.851562 193.960938 244.351562 193.351562 244.789062 192.691406 C 245.230469 192.035156 245.601562 191.339844 245.90625 190.609375 C 246.210938 189.878906 246.4375 189.125 246.59375 188.351562 C 246.75 187.574219 246.828125 186.792969 246.828125 186 L 246.828125 79.90625 C 246.828125 79.117188 246.75 78.332031 246.59375 77.554688 C 246.441406 76.78125 246.210938 76.027344 245.910156 75.292969 C 245.605469 74.5625 245.234375 73.867188 244.792969 73.210938 C 244.355469 72.550781 243.855469 71.945312 243.296875 71.382812 C 242.734375 70.824219 242.125 70.324219 241.46875 69.882812 C 240.8125 69.441406 240.117188 69.070312 239.386719 68.769531 C 238.652344 68.464844 237.898438 68.234375 237.125 68.078125 C 236.347656 67.921875 235.5625 67.84375 234.773438 67.84375 L 64.78125 67.84375 C 63.988281 67.84375 63.203125 67.921875 62.425781 68.078125 C 61.652344 68.234375 60.898438 68.460938 60.164062 68.765625 C 59.433594 69.070312 58.738281 69.441406 58.082031 69.882812 C 57.421875 70.320312 56.8125 70.820312 56.253906 71.382812 C 55.695312 71.941406 55.195312 72.550781 54.753906 73.210938 C 54.3125 73.867188 53.941406 74.5625 53.640625 75.292969 C 53.335938 76.023438 53.105469 76.777344 52.953125 77.554688 C 52.796875 78.332031 52.71875 79.117188 52.71875 79.90625 L 52.71875 80.859375 C 52.71875 81.363281 52.621094 81.847656 52.429688 82.3125 C 52.234375 82.777344 51.960938 83.1875 51.605469 83.542969 C 51.25 83.902344 50.835938 84.175781 50.371094 84.367188 C 49.90625 84.5625 49.421875 84.65625 48.917969 84.65625 C 48.414062 84.65625 47.929688 84.5625 47.464844 84.367188 C 46.996094 84.175781 46.585938 83.902344 46.230469 83.542969 C 45.875 83.1875 45.597656 82.777344 45.40625 82.3125 C 45.214844 81.847656 45.117188 81.363281 45.117188 80.859375 L 45.117188 79.90625 C 45.117188 79.265625 45.148438 78.621094 45.214844 77.980469 C 45.277344 77.339844 45.371094 76.703125 45.5 76.074219 C 45.625 75.441406 45.78125 74.820312 45.96875 74.203125 C 46.15625 73.585938 46.371094 72.980469 46.617188 72.386719 C 46.867188 71.792969 47.140625 71.210938 47.445312 70.644531 C 47.75 70.078125 48.078125 69.523438 48.4375 68.988281 C 48.792969 68.453125 49.175781 67.9375 49.585938 67.441406 C 49.996094 66.941406 50.425781 66.464844 50.882812 66.011719 C 51.335938 65.554688 51.8125 65.125 52.3125 64.714844 C 52.808594 64.308594 53.324219 63.925781 53.859375 63.566406 C 54.394531 63.207031 54.945312 62.878906 55.515625 62.574219 C 56.082031 62.269531 56.664062 61.996094 57.257812 61.75 C 57.851562 61.5 58.457031 61.285156 59.074219 61.097656 C 59.691406 60.910156 60.3125 60.753906 60.945312 60.625 C 61.578125 60.5 62.210938 60.40625 62.851562 60.34375 C 63.492188 60.277344 64.136719 60.246094 64.78125 60.246094 L 234.773438 60.246094 C 235.414062 60.246094 236.058594 60.277344 236.699219 60.34375 C 237.339844 60.40625 237.976562 60.5 238.605469 60.625 C 239.238281 60.753906 239.859375 60.910156 240.476562 61.097656 C 241.09375 61.285156 241.699219 61.5 242.292969 61.75 C 242.886719 61.996094 243.46875 62.269531 244.035156 62.574219 C 244.605469 62.878906 245.15625 63.207031 245.691406 63.566406 C 246.226562 63.925781 246.742188 64.308594 247.238281 64.714844 C 247.738281 65.125 248.214844 65.554688 248.667969 66.011719 C 249.125 66.46875 249.554688 66.941406 249.964844 67.441406 C 250.371094 67.9375 250.753906 68.453125 251.113281 68.988281 C 251.46875 69.523438 251.800781 70.078125 252.105469 70.644531 C 252.40625 71.210938 252.683594 71.792969 252.929688 72.386719 C 253.175781 72.980469 253.394531 73.585938 253.578125 74.203125 C 253.765625 74.820312 253.921875 75.441406 254.050781 76.074219 C 254.175781 76.703125 254.269531 77.339844 254.332031 77.980469 C 254.398438 78.621094 254.429688 79.265625 254.429688 79.90625 L 254.429688 186 C 254.429688 186.644531 254.398438 187.285156 254.332031 187.925781 C 254.269531 188.566406 254.175781 189.203125 254.046875 189.832031 C 253.921875 190.464844 253.765625 191.085938 253.578125 191.703125 C 253.390625 192.320312 253.171875 192.921875 252.925781 193.519531 C 252.679688 194.113281 252.40625 194.691406 252.101562 195.261719 C 251.796875 195.828125 251.46875 196.378906 251.109375 196.914062 C 250.75 197.449219 250.367188 197.964844 249.960938 198.460938 C 249.550781 198.960938 249.121094 199.433594 248.664062 199.890625 C 248.210938 200.34375 247.734375 200.777344 247.234375 201.183594 C 246.738281 201.59375 246.222656 201.976562 245.6875 202.335938 C 245.152344 202.691406 244.601562 203.023438 244.035156 203.324219 C 243.464844 203.628906 242.886719 203.90625 242.289062 204.152344 C 241.695312 204.398438 241.089844 204.613281 240.476562 204.800781 C 239.859375 204.988281 239.234375 205.144531 238.605469 205.273438 C 237.972656 205.398438 237.339844 205.492188 236.699219 205.558594 C 236.058594 205.621094 235.414062 205.652344 234.773438 205.652344 Z M 234.773438 205.652344 " fill-opacity="1" fill-rule="nonzero"/></g><path fill="#000000" d="M 37.117188 218.179688 C 36.785156 218.175781 36.457031 218.132812 36.132812 218.046875 C 35.8125 217.960938 35.507812 217.835938 35.21875 217.667969 C 34.929688 217.5 34.667969 217.300781 34.433594 217.0625 C 34.195312 216.828125 33.996094 216.566406 33.828125 216.277344 C 33.664062 215.988281 33.535156 215.683594 33.449219 215.359375 C 33.363281 215.039062 33.320312 214.710938 33.320312 214.378906 C 33.320312 214.042969 33.363281 213.714844 33.449219 213.394531 C 33.535156 213.074219 33.664062 212.765625 33.828125 212.480469 L 65.992188 156.785156 C 66.332031 156.199219 66.792969 155.734375 67.382812 155.398438 C 67.96875 155.058594 68.601562 154.886719 69.277344 154.886719 C 69.957031 154.886719 70.589844 155.054688 71.179688 155.394531 C 71.769531 155.734375 72.230469 156.199219 72.570312 156.785156 L 99.515625 203.453125 C 99.753906 203.890625 99.898438 204.351562 99.953125 204.84375 C 100.007812 205.335938 99.96875 205.820312 99.835938 206.296875 C 99.699219 206.773438 99.480469 207.210938 99.175781 207.601562 C 98.875 207.992188 98.507812 208.308594 98.078125 208.558594 C 97.648438 208.804688 97.1875 208.964844 96.699219 209.03125 C 96.207031 209.097656 95.722656 209.074219 95.242188 208.949219 C 94.761719 208.828125 94.324219 208.621094 93.921875 208.328125 C 93.523438 208.035156 93.195312 207.675781 92.9375 207.253906 L 69.277344 166.285156 L 40.410156 216.277344 C 40.070312 216.867188 39.605469 217.328125 39.019531 217.667969 C 38.429688 218.007812 37.796875 218.179688 37.117188 218.179688 Z M 37.117188 218.179688 " fill-opacity="1" fill-rule="nonzero"/><g clip-path="url(#66d041a2c6)"><path fill="#000000" d="M 169.679688 222.464844 C 169 222.46875 168.367188 222.296875 167.777344 221.957031 C 167.191406 221.617188 166.726562 221.15625 166.386719 220.566406 L 163.855469 216.203125 L 163.78125 216.070312 L 129.101562 156.015625 L 91.824219 220.5625 C 91.703125 220.785156 91.5625 220.992188 91.398438 221.1875 C 91.238281 221.382812 91.054688 221.558594 90.859375 221.71875 C 90.660156 221.875 90.449219 222.011719 90.222656 222.128906 C 89.996094 222.246094 89.761719 222.335938 89.515625 222.40625 C 89.273438 222.476562 89.023438 222.519531 88.769531 222.539062 C 88.519531 222.558594 88.265625 222.550781 88.011719 222.519531 C 87.761719 222.488281 87.515625 222.429688 87.273438 222.351562 C 87.035156 222.269531 86.804688 222.164062 86.585938 222.039062 C 86.363281 221.914062 86.160156 221.765625 85.96875 221.597656 C 85.78125 221.429688 85.609375 221.242188 85.453125 221.042969 C 85.300781 220.839844 85.171875 220.625 85.058594 220.394531 C 84.949219 220.167969 84.863281 219.929688 84.800781 219.683594 C 84.738281 219.4375 84.703125 219.1875 84.691406 218.933594 C 84.675781 218.679688 84.691406 218.429688 84.726562 218.179688 C 84.765625 217.925781 84.828125 217.683594 84.917969 217.445312 C 85.003906 217.207031 85.113281 216.980469 85.246094 216.761719 L 125.8125 146.519531 C 126.152344 145.929688 126.613281 145.464844 127.203125 145.125 C 127.789062 144.785156 128.425781 144.617188 129.101562 144.617188 C 129.78125 144.617188 130.417969 144.785156 131.003906 145.125 C 131.59375 145.464844 132.054688 145.929688 132.394531 146.519531 L 170.4375 212.394531 L 170.503906 212.511719 L 172.960938 216.757812 C 173.128906 217.046875 173.253906 217.351562 173.339844 217.671875 C 173.425781 217.996094 173.46875 218.324219 173.46875 218.65625 C 173.46875 218.988281 173.429688 219.316406 173.339844 219.636719 C 173.253906 219.960938 173.128906 220.265625 172.964844 220.554688 C 172.796875 220.84375 172.597656 221.105469 172.359375 221.339844 C 172.125 221.578125 171.863281 221.777344 171.574219 221.945312 C 171.289062 222.113281 170.984375 222.238281 170.660156 222.324219 C 170.339844 222.414062 170.011719 222.457031 169.679688 222.457031 Z M 169.679688 222.464844 " fill-opacity="1" fill-rule="nonzero"/></g><path fill="#000000" d="M 227.015625 219.632812 C 226.332031 219.632812 225.699219 219.464844 225.109375 219.125 C 224.519531 218.785156 224.058594 218.320312 223.71875 217.730469 L 196.636719 170.839844 L 170.511719 216.125 C 170.261719 216.566406 169.941406 216.945312 169.542969 217.257812 C 169.148438 217.570312 168.707031 217.792969 168.21875 217.933594 C 167.734375 218.070312 167.238281 218.109375 166.738281 218.046875 C 166.234375 217.988281 165.761719 217.835938 165.320312 217.589844 C 164.882812 217.34375 164.503906 217.019531 164.191406 216.625 C 163.878906 216.226562 163.652344 215.785156 163.515625 215.296875 C 163.378906 214.8125 163.339844 214.320312 163.398438 213.816406 C 163.457031 213.316406 163.613281 212.84375 163.859375 212.402344 L 193.347656 161.339844 C 193.683594 160.753906 194.148438 160.289062 194.738281 159.949219 C 195.324219 159.609375 195.960938 159.441406 196.636719 159.441406 C 197.316406 159.441406 197.949219 159.609375 198.539062 159.949219 C 199.128906 160.289062 199.589844 160.753906 199.929688 161.339844 L 230.300781 213.925781 C 230.46875 214.214844 230.59375 214.519531 230.679688 214.84375 C 230.765625 215.164062 230.808594 215.492188 230.808594 215.824219 C 230.808594 216.160156 230.765625 216.488281 230.679688 216.808594 C 230.59375 217.132812 230.46875 217.4375 230.300781 217.726562 C 230.136719 218.015625 229.933594 218.277344 229.699219 218.511719 C 229.464844 218.746094 229.203125 218.949219 228.914062 219.117188 C 228.625 219.28125 228.320312 219.410156 227.996094 219.496094 C 227.675781 219.582031 227.347656 219.625 227.015625 219.625 Z M 227.015625 219.632812 " fill-opacity="1" fill-rule="nonzero"/><path fill="#000000" d="M 160.785156 142.277344 C 160.082031 142.277344 159.382812 142.242188 158.683594 142.175781 C 157.984375 142.105469 157.289062 142.003906 156.601562 141.867188 C 155.910156 141.730469 155.230469 141.5625 154.558594 141.359375 C 153.886719 141.152344 153.222656 140.917969 152.574219 140.648438 C 151.925781 140.382812 151.289062 140.082031 150.671875 139.75 C 150.050781 139.421875 149.449219 139.058594 148.863281 138.667969 C 148.28125 138.28125 147.714844 137.863281 147.171875 137.417969 C 146.628906 136.972656 146.109375 136.5 145.613281 136.003906 C 145.113281 135.507812 144.644531 134.988281 144.199219 134.445312 C 143.75 133.902344 143.332031 133.339844 142.941406 132.753906 C 142.550781 132.171875 142.191406 131.570312 141.859375 130.949219 C 141.527344 130.332031 141.226562 129.699219 140.957031 129.046875 C 140.6875 128.398438 140.453125 127.738281 140.25 127.066406 C 140.042969 126.394531 139.875 125.714844 139.734375 125.027344 C 139.597656 124.335938 139.496094 123.644531 139.425781 122.945312 C 139.355469 122.246094 139.324219 121.542969 139.320312 120.839844 C 139.320312 120.140625 139.355469 119.4375 139.425781 118.738281 C 139.492188 118.039062 139.597656 117.347656 139.734375 116.65625 C 139.871094 115.96875 140.039062 115.289062 140.242188 114.613281 C 140.449219 113.941406 140.683594 113.28125 140.953125 112.632812 C 141.222656 111.984375 141.519531 111.351562 141.851562 110.730469 C 142.183594 110.109375 142.542969 109.507812 142.933594 108.925781 C 143.324219 108.339844 143.742188 107.777344 144.1875 107.234375 C 144.632812 106.691406 145.105469 106.171875 145.601562 105.675781 C 146.097656 105.175781 146.617188 104.707031 147.160156 104.261719 C 147.703125 103.8125 148.265625 103.394531 148.851562 103.007812 C 149.433594 102.617188 150.039062 102.253906 150.65625 101.921875 C 151.277344 101.59375 151.910156 101.292969 152.558594 101.023438 C 153.210938 100.753906 153.871094 100.519531 154.542969 100.3125 C 155.214844 100.109375 155.894531 99.941406 156.585938 99.800781 C 157.273438 99.664062 157.96875 99.5625 158.667969 99.492188 C 159.367188 99.425781 160.066406 99.390625 160.769531 99.390625 C 161.472656 99.390625 162.171875 99.425781 162.871094 99.492188 C 163.570312 99.5625 164.265625 99.664062 164.953125 99.800781 C 165.644531 99.9375 166.324219 100.109375 166.996094 100.3125 C 167.667969 100.515625 168.332031 100.753906 168.980469 101.023438 C 169.628906 101.289062 170.261719 101.589844 170.882812 101.921875 C 171.503906 102.253906 172.105469 102.613281 172.6875 103.003906 C 173.273438 103.394531 173.835938 103.8125 174.378906 104.257812 C 174.921875 104.703125 175.441406 105.175781 175.9375 105.671875 C 176.4375 106.167969 176.90625 106.6875 177.351562 107.230469 C 177.796875 107.773438 178.214844 108.339844 178.605469 108.921875 C 178.996094 109.507812 179.359375 110.109375 179.6875 110.726562 C 180.019531 111.347656 180.320312 111.980469 180.589844 112.628906 C 180.859375 113.28125 181.09375 113.941406 181.296875 114.613281 C 181.5 115.285156 181.671875 115.964844 181.808594 116.652344 C 181.945312 117.34375 182.046875 118.035156 182.117188 118.734375 C 182.1875 119.433594 182.21875 120.136719 182.21875 120.839844 C 182.21875 121.539062 182.183594 122.238281 182.113281 122.9375 C 182.042969 123.636719 181.941406 124.328125 181.804688 125.019531 C 181.667969 125.707031 181.496094 126.386719 181.289062 127.058594 C 181.085938 127.726562 180.851562 128.386719 180.582031 129.035156 C 180.3125 129.683594 180.011719 130.316406 179.679688 130.9375 C 179.351562 131.554688 178.988281 132.15625 178.597656 132.738281 C 178.210938 133.324219 177.792969 133.886719 177.347656 134.429688 C 176.902344 134.96875 176.429688 135.488281 175.933594 135.984375 C 175.4375 136.484375 174.917969 136.953125 174.375 137.398438 C 173.835938 137.84375 173.269531 138.261719 172.6875 138.652344 C 172.105469 139.042969 171.503906 139.402344 170.886719 139.734375 C 170.265625 140.066406 169.632812 140.367188 168.984375 140.636719 C 168.335938 140.902344 167.675781 141.140625 167.003906 141.34375 C 166.332031 141.550781 165.652344 141.722656 164.964844 141.859375 C 164.277344 141.996094 163.585938 142.101562 162.886719 142.171875 C 162.1875 142.242188 161.488281 142.277344 160.785156 142.277344 Z M 160.785156 106.992188 C 159.875 106.992188 158.976562 107.082031 158.082031 107.257812 C 157.191406 107.433594 156.324219 107.695312 155.484375 108.042969 C 154.644531 108.390625 153.84375 108.816406 153.089844 109.320312 C 152.332031 109.824219 151.632812 110.398438 150.988281 111.039062 C 150.34375 111.683594 149.769531 112.382812 149.261719 113.136719 C 148.757812 113.894531 148.328125 114.691406 147.980469 115.53125 C 147.632812 116.371094 147.371094 117.234375 147.191406 118.128906 C 147.011719 119.019531 146.921875 119.917969 146.921875 120.828125 C 146.921875 121.738281 147.011719 122.636719 147.1875 123.53125 C 147.363281 124.421875 147.625 125.289062 147.972656 126.128906 C 148.320312 126.96875 148.746094 127.765625 149.253906 128.523438 C 149.757812 129.28125 150.332031 129.980469 150.972656 130.621094 C 151.617188 131.265625 152.316406 131.839844 153.070312 132.347656 C 153.828125 132.851562 154.625 133.277344 155.464844 133.625 C 156.304688 133.976562 157.171875 134.238281 158.0625 134.414062 C 158.957031 134.59375 159.855469 134.683594 160.765625 134.683594 C 161.675781 134.683594 162.578125 134.59375 163.46875 134.417969 C 164.359375 134.242188 165.226562 133.976562 166.066406 133.628906 C 166.90625 133.28125 167.707031 132.855469 168.460938 132.351562 C 169.21875 131.847656 169.917969 131.273438 170.5625 130.628906 C 171.203125 129.988281 171.777344 129.289062 172.285156 128.53125 C 172.789062 127.777344 173.214844 126.976562 173.566406 126.136719 C 173.914062 125.296875 174.175781 124.429688 174.351562 123.539062 C 174.53125 122.648438 174.621094 121.746094 174.621094 120.839844 C 174.617188 119.929688 174.527344 119.03125 174.351562 118.140625 C 174.171875 117.25 173.910156 116.386719 173.5625 115.546875 C 173.214844 114.707031 172.789062 113.910156 172.28125 113.15625 C 171.777344 112.402344 171.203125 111.703125 170.5625 111.058594 C 169.921875 110.417969 169.222656 109.84375 168.46875 109.335938 C 167.710938 108.832031 166.917969 108.40625 166.078125 108.058594 C 165.238281 107.707031 164.375 107.445312 163.484375 107.265625 C 162.59375 107.085938 161.695312 106.996094 160.785156 106.992188 Z M 160.785156 106.992188 " fill-opacity="1" fill-rule="nonzero"/></g></g></svg>