<svg xmlns="http://www.w3.org/2000/svg" xmlns:xlink="http://www.w3.org/1999/xlink" width="378" zoomAndPan="magnify" viewBox="0 0 283.5 283.500005" height="378" preserveAspectRatio="xMidYMid meet" version="1.0"><defs><clipPath id="96e60f0641"><path d="M 0 0 L 283 0 L 283 283 L 0 283 Z M 0 0 " clip-rule="nonzero"/></clipPath><clipPath id="2f01806d41"><path d="M 38.914062 28.300781 L 244.078125 28.300781 L 244.078125 254.429688 L 38.914062 254.429688 Z M 38.914062 28.300781 " clip-rule="nonzero"/></clipPath><clipPath id="737193949e"><rect x="0" width="283" y="0" height="283"/></clipPath></defs><path fill="#ffffff" d="M 0 0 L 283 0 L 283 283 L 0 283 Z M 0 0 " fill-opacity="1" fill-rule="nonzero"/><g transform="matrix(1, 0, 0, 1, 0, 0.000000000000005262)"><g clip-path="url(#737193949e)"><g clip-path="url(#96e60f0641)"><rect x="-62.37" width="408.24" fill="#ffffff" height="408.240007" y="-62.370001" fill-opacity="1"/></g><g clip-path="url(#2f01806d41)"><path fill="#000000" d="M 39.355469 183.699219 C 39.355469 183.140625 38.015625 111 40.449219 101.507812 C 44.234375 86.734375 55.835938 87.285156 69.613281 84.503906 C 69.652344 84.496094 74.25 83.570312 74.710938 83.421875 C 74.550781 83.191406 74.480469 83.007812 74.019531 82.890625 C 67.15625 81.175781 59.324219 77.179688 55.359375 70.59375 C 52.417969 65.714844 52.429688 58.433594 56.144531 54.277344 C 58.460938 51.683594 61.660156 49.324219 67.0625 47.710938 C 68.847656 47.179688 66.605469 43.714844 71.472656 37.355469 C 74.523438 33.371094 81.144531 31.167969 85.832031 30.886719 C 97.40625 30.1875 108.519531 26.636719 119.960938 29.242188 C 135.785156 32.84375 144.515625 56.214844 144.679688 56.476562 C 145.214844 57.304688 147.894531 50.792969 153.347656 48.957031 C 156.839844 47.78125 154.480469 48.039062 167.851562 47.6875 C 168.785156 47.660156 169.730469 47.535156 170.671875 47.527344 C 170.957031 47.527344 171.191406 47.472656 171.40625 47.265625 C 191.144531 28.554688 214.464844 26.707031 228.371094 33.316406 C 236.484375 37.171875 237.914062 43.171875 238.898438 45.777344 C 239.066406 46.226562 239.039062 46.71875 239.066406 47.171875 C 239.148438 48.570312 239.558594 49.953125 239.234375 51.378906 C 238.882812 52.933594 239.796875 57.007812 232.90625 64.789062 C 227.867188 70.480469 219.265625 75.039062 212.347656 78.195312 C 210.667969 78.960938 209.886719 78.980469 209.910156 79.25 C 209.917969 79.371094 209.996094 79.429688 210.101562 79.4375 C 210.40625 79.464844 210.667969 79.621094 210.980469 79.65625 C 211.714844 79.734375 217.089844 80.394531 217.777344 80.425781 C 218.886719 80.476562 219.996094 80.480469 221.070312 80.828125 C 221.164062 80.859375 221.273438 80.839844 221.375 80.84375 C 245.375 81.847656 242.558594 98.613281 243.386719 102.886719 C 243.558594 103.773438 244.703125 169.671875 243.414062 199.488281 C 242.511719 220.351562 229.40625 220.746094 227.867188 224.199219 C 225.792969 228.839844 221.246094 231.429688 216.585938 233.546875 C 215.367188 234.097656 214.101562 234.925781 213.148438 235.410156 C 199.203125 242.53125 199.519531 242.617188 192.988281 243.722656 C 188.042969 244.5625 187.652344 243.515625 185.9375 244.371094 C 182.570312 246.050781 173.171875 250.21875 172.867188 250.34375 C 167.519531 252.539062 162.925781 254.394531 156.625 254.429688 C 148.367188 254.476562 130.117188 249.972656 127.78125 249.007812 C 126.605469 248.519531 122.84375 251.105469 113.027344 249.640625 C 108.019531 248.894531 109.25 249.277344 99.277344 246.808594 C 77.15625 241.328125 76.550781 241.753906 73.898438 239.046875 C 72.882812 238.007812 71.773438 237.054688 71.0625 235.765625 C 70.554688 234.84375 70.90625 235.546875 59.5625 232.269531 C 36.628906 225.640625 41.089844 217.6875 39.355469 183.699219 Z M 196.027344 212.972656 C 196.175781 200.753906 196.9375 116.347656 194.652344 104.34375 C 194.316406 102.582031 194.503906 99.324219 190.132812 95.164062 C 189.441406 94.507812 189.421875 95.097656 185.96875 95.964844 C 176.644531 98.308594 168.863281 99.890625 164.984375 101.652344 C 163.882812 102.15625 162.515625 100.960938 174.820312 97.734375 C 174.863281 97.722656 186.773438 94.601562 188.074219 94.59375 C 188.25 94.59375 189.03125 94.222656 188.417969 93.933594 C 182.007812 90.898438 168.148438 91.070312 164.128906 89.921875 C 164.035156 89.894531 151.078125 88.644531 150.996094 88.617188 C 148.203125 87.761719 141.878906 90.207031 136.101562 91.3125 C 110.585938 96.191406 116.070312 99.058594 114.28125 148.558594 C 113.925781 158.390625 114.691406 224.691406 116.25 233.519531 C 117.714844 241.796875 121.203125 243.78125 126.003906 245.0625 C 158.726562 253.800781 161.023438 251.75 177.519531 244.371094 C 193.703125 237.132812 196.027344 237.613281 196.027344 212.972656 Z M 68.460938 193.195312 C 69.601562 216.71875 66.449219 235.257812 81.410156 238.828125 C 109.328125 245.488281 108.929688 245.679688 114.074219 246.1875 C 114.761719 246.253906 120.371094 246.917969 120.71875 246.300781 C 117.367188 243.472656 115.824219 242.921875 113.746094 235.46875 C 111.273438 226.589844 110.792969 148.195312 111.5625 138.351562 C 112.996094 120 109.21875 101.175781 119.121094 93.976562 C 122.101562 91.8125 125.007812 90.957031 129.78125 89.871094 C 148.332031 85.652344 146.863281 85.753906 151.382812 84.917969 C 151.640625 84.867188 151.644531 84.78125 151.398438 84.730469 C 148.109375 84.074219 148.085938 84.035156 147.75 84.160156 C 143.242188 85.789062 116.214844 87.894531 104.15625 84.496094 C 99.171875 83.089844 102.769531 82.671875 94.464844 84.472656 C 83.84375 86.78125 79.179688 87.804688 76.980469 88.816406 C 71.992188 91.101562 69.828125 95.410156 68.800781 100.574219 C 67.085938 109.183594 68.355469 184.617188 68.460938 193.195312 Z M 225.550781 91.535156 C 223.289062 85.871094 215.789062 83.234375 209.921875 82.421875 C 198.128906 80.792969 201.394531 82.148438 193.769531 83.371094 C 177.0625 86.046875 158.304688 84.429688 157.652344 86.484375 C 157.871094 86.652344 182.921875 89.195312 184.039062 89.453125 C 187.652344 90.28125 191.3125 91.769531 193.664062 94.632812 C 194.507812 95.664062 196.457031 98.363281 196.746094 99.664062 C 200.144531 114.839844 199.824219 216.96875 198.519531 226.511719 C 197.972656 230.503906 197.46875 233.382812 195.753906 236.15625 C 193.730469 239.425781 193.585938 238.839844 192.933594 239.738281 C 192.667969 240.101562 192.902344 240.265625 193.207031 240.175781 C 194.332031 239.839844 196.277344 239.582031 198.792969 238.601562 C 200.640625 237.882812 216.261719 229.773438 220.503906 227.359375 C 224.910156 224.847656 226.976562 218.835938 227.429688 213.789062 C 228.496094 201.992188 230.867188 104.867188 225.550781 91.535156 Z M 42.644531 155.792969 C 44.765625 214.601562 38.992188 223.316406 59.648438 228.648438 C 68.699219 230.988281 68.617188 231.8125 68.074219 230.074219 C 64.082031 217.324219 64.578125 103.605469 65.863281 100.53125 C 66.054688 100.074219 67.367188 91.695312 72.320312 88.300781 C 72.648438 88.078125 72.941406 87.835938 73.042969 87.429688 C 72.675781 87.332031 72.304688 87.34375 71.949219 87.460938 C 68.5625 88.585938 52.953125 89.671875 47.765625 95.039062 C 41.667969 101.351562 43.589844 109.859375 42.886719 125.304688 C 42.660156 130.320312 42.644531 152.097656 42.644531 155.792969 Z M 139.128906 82.875 C 139.398438 82.871094 139.78125 82.90625 139.804688 82.597656 C 139.875 81.785156 136.378906 82.464844 129.769531 79.207031 C 101.199219 65.125 102.699219 41.148438 115.851562 34.925781 C 119.960938 32.984375 125.238281 35.78125 124.542969 36.53125 C 124.34375 36.746094 124.375 36.734375 123.449219 36.371094 C 116.824219 33.78125 110.636719 40.390625 109.757812 47.65625 C 109.535156 49.507812 111.050781 48.023438 118.675781 57.738281 C 124.035156 64.558594 126.460938 69.253906 128.523438 71.453125 C 129.585938 72.585938 129.042969 71.515625 132.351562 70.511719 C 137.402344 68.976562 143.425781 69.808594 147.632812 71.488281 C 148.574219 71.863281 147.296875 69.800781 147.195312 69.578125 C 140.601562 55.4375 133.402344 32.582031 114.675781 31.71875 C 112.171875 31.605469 107.21875 31.667969 106.363281 31.90625 C 106.148438 31.96875 92.082031 33.5625 92.066406 33.5625 C 88.066406 34.421875 82.097656 33.945312 76.945312 37.097656 C 72.640625 39.730469 69.78125 46.050781 71.417969 53.386719 C 73.539062 62.917969 82.128906 69.5625 89.273438 74.445312 C 107.410156 86.84375 123.234375 82.9375 139.128906 82.875 Z M 211.308594 33.304688 C 187.394531 33.476562 174.621094 47.621094 159.179688 64.160156 C 157.222656 66.253906 161.21875 64.457031 166.246094 68.910156 C 167.800781 70.285156 168.785156 72.015625 169.371094 73.984375 C 170.484375 77.710938 185.722656 51.019531 206.777344 44.429688 C 208.15625 43.996094 211.8125 43.128906 212.875 43.246094 C 214.074219 43.378906 210.863281 39.40625 204.882812 37.828125 C 204.492188 37.726562 204.078125 37.820312 203.6875 37.636719 C 202.804688 37.222656 199.015625 37.335938 198.050781 37.46875 C 196.375 37.699219 193.578125 38.75 193.433594 38.4375 C 193.085938 37.6875 201.933594 33.289062 210.367188 37.441406 C 218.996094 41.6875 221.808594 50.945312 208.480469 63.503906 C 203.976562 67.75 196.683594 71.511719 190.609375 74.113281 C 176.144531 80.304688 165.011719 81.703125 162.101562 82.300781 C 159.269531 82.882812 180.148438 81.988281 183.851562 81.726562 C 208.011719 80.027344 235.097656 65.9375 235.898438 51.679688 C 236.644531 38.339844 224.6875 33.304688 211.308594 33.304688 Z M 240.019531 113.421875 C 239.636719 105.8125 240.226562 96.890625 237.554688 91.710938 C 234.089844 84.988281 224.605469 84.4375 224.394531 84.824219 C 224.359375 84.886719 224.851562 85.367188 224.90625 85.417969 C 232.425781 92.390625 230.84375 114.4375 231.296875 116.421875 C 232.804688 122.976562 231.550781 213.425781 229.949219 216.972656 C 229.816406 217.265625 229.835938 217.566406 229.828125 217.867188 C 229.8125 218.265625 229.921875 218.3125 230.308594 218.101562 C 242.515625 211.550781 240.019531 202.980469 240.019531 113.421875 Z M 60.515625 72.394531 C 68.78125 80.96875 84.800781 82.070312 87.273438 82.847656 C 87.863281 83.035156 88.554688 82.992188 89.183594 82.804688 C 90.84375 82.296875 96.808594 81.660156 95.402344 81.125 C 92.726562 80.105469 83.679688 74.929688 78.601562 70.316406 C 71.132812 63.527344 67.914062 56.003906 67.828125 51.128906 C 67.804688 49.839844 66.234375 51.523438 64.855469 51.6875 C 62.234375 53.269531 58.390625 54.589844 56.933594 59.242188 C 55.425781 64.050781 57.21875 68.972656 60.515625 72.394531 Z M 199.925781 60.707031 C 200.109375 57.125 197.890625 54.523438 195.628906 53.976562 C 193.121094 53.371094 178.171875 69.722656 175.480469 72.546875 C 170.769531 77.492188 169.667969 77.457031 169.949219 77.953125 C 170.453125 78.839844 187.222656 72.867188 191.902344 70.53125 C 198.082031 67.453125 197.808594 68.136719 198.628906 66.128906 C 199.367188 64.316406 200.035156 62.539062 199.925781 60.707031 Z M 160.101562 50.765625 C 154.847656 50.957031 151.191406 51.707031 146.460938 59.59375 C 145.921875 60.496094 146.304688 60.570312 146.601562 61.570312 C 146.917969 62.632812 147.628906 63.527344 147.867188 64.628906 C 148.085938 65.640625 149.121094 64.871094 149.203125 64.847656 C 153.929688 63.507812 154.957031 65.480469 155.957031 64.003906 C 158.460938 60.316406 167.886719 50.734375 167.878906 50.695312 C 167.796875 50.238281 161.234375 50.890625 160.101562 50.765625 Z M 214.945312 47.488281 C 214.945312 45.914062 215.015625 45.917969 213.984375 45.890625 C 209.28125 45.761719 199.933594 49.902344 198.257812 51.503906 C 197.507812 52.222656 199.945312 51.933594 201.6875 55.566406 C 203.003906 58.304688 203.152344 60.953125 202.792969 62.570312 C 202.683594 63.058594 202.78125 63.578125 202.5625 64.058594 C 201.773438 65.773438 214.988281 55.96875 214.945312 47.488281 Z M 150.402344 67.242188 C 148.402344 67.199219 149.628906 69.074219 150.28125 69.078125 C 152.035156 69.085938 155.457031 70.390625 156.261719 71.746094 C 156.425781 72.019531 156.222656 72.171875 156.03125 72.054688 C 152.15625 69.71875 154.332031 70.921875 150.863281 69.71875 C 149.574219 69.273438 150.285156 70.496094 150.875 71.730469 C 151.222656 72.457031 153.308594 72.046875 154.066406 74.203125 C 154.210938 74.609375 155.667969 76.851562 155.546875 79.332031 C 155.429688 81.675781 154.808594 80.339844 165.957031 79.03125 C 167.234375 78.882812 169.496094 71.105469 158.21875 67.902344 C 154.902344 66.960938 154.089844 67.324219 150.402344 67.242188 Z M 138.515625 72.3125 C 136.605469 72.503906 131.304688 72.636719 128.84375 75.308594 C 128.589844 75.585938 129.21875 75.9375 129.257812 75.957031 C 133.117188 77.789062 134.394531 78.410156 138.738281 79.417969 C 147.792969 81.515625 148.875 80.53125 149.808594 80.46875 C 150.9375 80.390625 150.984375 80.433594 150.738281 81.53125 C 150.667969 81.839844 150.8125 81.863281 151.046875 81.871094 C 151.496094 81.886719 151.730469 81.457031 152.125 81.367188 C 153.550781 81.039062 152.796875 79.304688 153.0625 78.632812 C 152.570312 77.703125 152.675781 76.035156 151.851562 75.769531 C 151.207031 75.5625 149.652344 74.652344 146.21875 73.769531 C 138.972656 71.910156 141.027344 72.886719 138.515625 72.3125 Z M 112.597656 61.234375 C 115.058594 64.574219 115.261719 65.140625 118.753906 68.367188 C 119.898438 69.425781 126.058594 73.875 126.542969 73.285156 C 126.671875 73.128906 126.226562 72.632812 126.140625 72.542969 C 124.582031 70.957031 123.320312 68.441406 122.125 67.515625 C 119.679688 65.625 110.632812 58.566406 112.597656 61.234375 Z M 110.011719 54.378906 C 110.074219 55.085938 110.441406 56.53125 111.140625 56.84375 C 114.898438 58.53125 121.722656 65.207031 111.332031 53.320312 C 108.945312 50.589844 109.824219 52.222656 110.011719 54.378906 Z M 110.011719 54.378906 " fill-opacity="1" fill-rule="nonzero"/></g><path fill="#000000" d="M 158.570312 209.238281 C 158.429688 214.929688 156.800781 177.808594 157.59375 128.804688 C 157.617188 127.242188 158.203125 128.316406 158.195312 130.015625 C 158.191406 130.058594 158.570312 209.277344 158.570312 209.238281 Z M 158.570312 209.238281 " fill-opacity="1" fill-rule="nonzero"/><path fill="#000000" d="M 146.816406 100.199219 C 150.757812 101.144531 150.773438 102.433594 149.386719 101.867188 C 144.476562 99.867188 137.074219 99.757812 135.117188 99.199219 C 134.929688 99.144531 134.714844 99.171875 134.511719 99.167969 C 132.753906 99.152344 124.769531 98.148438 124.707031 98.152344 C 124.101562 98.1875 123.863281 97.898438 123.449219 97.621094 C 124.617188 97.152344 139.878906 98.535156 146.816406 100.199219 Z M 146.816406 100.199219 " fill-opacity="1" fill-rule="nonzero"/><path fill="#000000" d="M 159.253906 230.953125 C 158.726562 233.8125 159.53125 237.613281 156.519531 242.496094 C 156.011719 243.316406 154.609375 244.613281 153.953125 244.6875 C 153.339844 244.757812 153.414062 244.132812 153.800781 243.914062 C 155.195312 243.113281 157.699219 239.472656 158.054688 234.910156 C 158.6875 226.824219 158.105469 225.210938 158.5625 225.207031 C 159.421875 225.195312 158.703125 227.21875 159.253906 230.953125 Z M 159.253906 230.953125 " fill-opacity="1" fill-rule="nonzero"/><path fill="#000000" d="M 158.160156 115.773438 C 158.300781 116.671875 158.015625 117.558594 157.96875 118.464844 C 157.953125 118.71875 157.609375 118.683594 157.59375 118.433594 C 157.558594 117.761719 157.390625 117.113281 157.355469 116.4375 C 157.222656 114.007812 157.027344 110.859375 155.851562 108.710938 C 155.386719 107.863281 155.191406 107.550781 155.445312 107.355469 C 156.503906 106.535156 158.554688 112.710938 158.160156 115.773438 Z M 158.160156 115.773438 " fill-opacity="1" fill-rule="nonzero"/><path fill="#000000" d="M 71.828125 177.675781 C 72.625 179.386719 71.851562 222.667969 75.058594 229.441406 C 75.296875 229.949219 74.988281 230.667969 75.527344 231.25 C 75.703125 231.445312 74.539062 232.796875 72.9375 223.066406 C 71.503906 214.339844 71.445312 178.222656 71.828125 177.675781 Z M 71.828125 177.675781 " fill-opacity="1" fill-rule="nonzero"/><path fill="#000000" d="M 108.457031 192.730469 C 109.109375 194.28125 108.804688 224.765625 109.910156 228.785156 C 110.027344 229.199219 109.960938 229.660156 109.964844 230.101562 C 109.980469 231.582031 111.007812 237.617188 111.855469 239.308594 C 112.003906 239.597656 112.148438 239.992188 111.890625 240.132812 C 111.53125 240.324219 111.410156 239.878906 111.304688 239.621094 C 107.308594 229.9375 108.027344 193.582031 108.457031 192.730469 Z M 108.457031 192.730469 " fill-opacity="1" fill-rule="nonzero"/><path fill="#000000" d="M 111.621094 96.621094 C 111.699219 96.507812 111.804688 96.308594 112.019531 96.429688 C 112.230469 96.550781 112.183594 96.597656 111.769531 97.589844 C 110.367188 100.972656 110.464844 103.25 110.125 106.933594 C 109.816406 110.269531 109.570312 135.59375 109.046875 136.695312 C 108.679688 135.621094 107.859375 102.0625 111.621094 96.621094 Z M 111.621094 96.621094 " fill-opacity="1" fill-rule="nonzero"/><path fill="#000000" d="M 71.109375 120.078125 C 71.109375 109.207031 70.578125 100.289062 73.414062 95.171875 C 73.507812 95.003906 73.527344 94.769531 73.753906 94.695312 C 74.785156 94.359375 73.785156 95.089844 73.03125 97.765625 C 71.246094 104.09375 71.898438 142.03125 71.328125 134.96875 C 70.925781 130.011719 71.175781 125.042969 71.109375 120.078125 Z M 71.109375 120.078125 " fill-opacity="1" fill-rule="nonzero"/><path fill="#000000" d="M 80.710938 91.621094 C 82.796875 91.589844 109.253906 93.808594 106.246094 94.28125 C 103.359375 94.734375 69.609375 91.621094 80.710938 91.621094 Z M 80.710938 91.621094 " fill-opacity="1" fill-rule="nonzero"/><path fill="#000000" d="M 137.214844 85.941406 C 140.878906 86.117188 124.445312 89.453125 124.402344 89.460938 C 123.070312 89.695312 121.703125 90.671875 121.488281 90.375 C 120.417969 88.902344 134.398438 86.453125 136.214844 86.15625 C 136.574219 86.097656 136.886719 85.804688 137.214844 85.941406 Z M 137.214844 85.941406 " fill-opacity="1" fill-rule="nonzero"/><path fill="#000000" d="M 225.957031 130.945312 C 225.957031 139.878906 226.019531 134.929688 225.746094 139.925781 C 225.722656 140.339844 225.4375 140.023438 225.421875 139.929688 C 224.804688 136.4375 225.582031 103.234375 223.480469 96.15625 C 223.195312 95.195312 222.554688 94.203125 222.789062 93.535156 C 225.378906 97.28125 225.695312 99.734375 225.957031 130.945312 Z M 225.957031 130.945312 " fill-opacity="1" fill-rule="nonzero"/><path fill="#000000" d="M 224.816406 207.605469 C 224.28125 207.585938 224.796875 207.558594 224.953125 163.746094 C 224.953125 163.5625 224.886719 163.148438 225.226562 163.054688 C 226.402344 162.742188 225.136719 207.617188 224.816406 207.605469 Z M 224.816406 207.605469 " fill-opacity="1" fill-rule="nonzero"/><path fill="#000000" d="M 202.324219 121.394531 C 202.324219 124.996094 202.410156 124.757812 202.066406 125.703125 C 201.667969 125.347656 201.738281 124.867188 201.753906 124.417969 C 201.757812 124.285156 201.140625 110.066406 201.066406 109.265625 C 200.078125 98.332031 199.011719 97.660156 196.152344 93.6875 C 196.03125 93.511719 195.691406 93.351562 195.945312 93.125 C 196.144531 92.945312 196.402344 93.214844 196.5625 93.335938 C 201.71875 97.246094 202.015625 107.046875 202.324219 121.394531 Z M 202.324219 121.394531 " fill-opacity="1" fill-rule="nonzero"/><path fill="#000000" d="M 201.335938 215.199219 C 201.335938 225.355469 201.632812 226.808594 200.320312 231.160156 C 199.945312 232.398438 199.484375 232.039062 199.730469 231.058594 C 201.359375 224.597656 200.023438 207.605469 201.214844 203.910156 C 201.386719 204 201.34375 203.914062 201.335938 215.199219 Z M 201.335938 215.199219 " fill-opacity="1" fill-rule="nonzero"/><path fill="#000000" d="M 171.816406 85.941406 C 172.425781 85.953125 186.40625 86.914062 189.289062 88.179688 C 189.628906 88.328125 191.15625 89.085938 190.894531 89.492188 C 190.703125 89.785156 190.292969 89.457031 189.886719 89.289062 C 185.667969 87.566406 162.359375 85.941406 171.816406 85.941406 Z M 171.816406 85.941406 " fill-opacity="1" fill-rule="nonzero"/><path fill="#000000" d="M 200.699219 92.238281 C 195.125 92.238281 236.1875 82.738281 207.75 90.738281 C 206.371094 91.128906 200.703125 92.476562 200.699219 92.238281 Z M 200.699219 92.238281 " fill-opacity="1" fill-rule="nonzero"/><path fill="#000000" d="M 202.351562 139.847656 C 202.285156 140.507812 202.195312 141.078125 202.292969 141.6875 C 202.378906 142.230469 202.0625 142.796875 202.136719 143.375 C 202.160156 143.570312 201.976562 143.683594 201.945312 143.398438 C 201.65625 140.871094 201.6875 135.03125 201.8125 135.03125 C 202.382812 135.03125 201.910156 138.175781 202.351562 139.847656 Z M 202.351562 139.847656 " fill-opacity="1" fill-rule="nonzero"/><path fill="#000000" d="M 54.871094 94.0625 C 53.5 94.019531 54.113281 93.285156 54.789062 93.277344 C 55.800781 93.261719 56.796875 92.925781 57.804688 93.085938 C 59.148438 93.300781 63.457031 93.292969 65.03125 94.082031 C 66.550781 94.84375 62.054688 94.28125 54.871094 94.0625 Z M 54.871094 94.0625 " fill-opacity="1" fill-rule="nonzero"/><path fill="#000000" d="M 78.550781 39.636719 C 78.875 40.476562 75.8125 42.308594 75.65625 48.917969 C 75.414062 59.175781 85.589844 67.601562 85.992188 68.546875 C 86.714844 70.226562 80.691406 64.75 77.542969 59.167969 C 74.988281 54.640625 75.222656 52.40625 74.996094 52.03125 C 75.074219 50.726562 74.585938 49.441406 74.917969 48.113281 C 75.328125 46.472656 74.316406 45.132812 78.058594 39.960938 C 78.164062 39.8125 78.378906 39.742188 78.550781 39.636719 Z M 78.550781 39.636719 " fill-opacity="1" fill-rule="nonzero"/><path fill="#000000" d="M 142.28125 65.238281 C 137.601562 55.691406 137.292969 51.972656 129.699219 43.742188 C 129.214844 43.21875 129.617188 42.035156 134.035156 47.683594 C 139.410156 54.554688 146.789062 74.429688 142.28125 65.238281 Z M 142.28125 65.238281 " fill-opacity="1" fill-rule="nonzero"/><path fill="#000000" d="M 104.054688 48.605469 C 104.054688 39.152344 110.058594 34.277344 111.488281 34.792969 C 110.894531 35.804688 106.585938 37.113281 104.714844 46.375 C 104.675781 46.554688 104.6875 50.796875 104.6875 50.835938 C 104.691406 52.9375 105.320312 54.183594 104.992188 54.792969 C 104.53125 54.171875 104.5 53.222656 104.269531 52.425781 C 103.90625 51.171875 104.113281 49.878906 104.054688 48.605469 Z M 104.054688 48.605469 " fill-opacity="1" fill-rule="nonzero"/><path fill="#000000" d="M 181.761719 79.382812 C 182.648438 78.460938 184.640625 79.476562 197.644531 73.070312 C 203.625 70.125 205.558594 68.226562 205.847656 68.632812 C 206.082031 68.960938 205.683594 69.09375 205.511719 69.210938 C 193.085938 77.664062 180.746094 80.445312 181.761719 79.382812 Z M 181.761719 79.382812 " fill-opacity="1" fill-rule="nonzero"/><path fill="#000000" d="M 183.59375 44.710938 C 183.566406 44.820312 183.464844 44.84375 183.386719 44.902344 C 169.296875 55.320312 163.722656 64.6875 162.59375 64.78125 C 162.269531 64.085938 175.011719 48.707031 183.4375 44.582031 C 183.554688 44.527344 183.601562 44.527344 183.59375 44.710938 Z M 183.59375 44.710938 " fill-opacity="1" fill-rule="nonzero"/><path fill="#000000" d="M 220.355469 46.851562 C 220.136719 46.269531 220.199219 44.121094 218.996094 41.980469 C 216.242188 37.074219 212.269531 36.75 212.351562 36.140625 C 212.453125 35.378906 216.929688 37.042969 219.023438 40.511719 C 219.917969 41.996094 221.238281 45.359375 220.355469 46.851562 Z M 220.355469 46.851562 " fill-opacity="1" fill-rule="nonzero"/><path fill="#000000" d="M 233.402344 45.609375 C 232.878906 47.367188 233.660156 45.128906 229.707031 40.859375 C 228.003906 39.023438 231.898438 40.25 233.402344 45.609375 Z M 233.402344 45.609375 " fill-opacity="1" fill-rule="nonzero"/><path fill="#000000" d="M 233.710938 52.765625 C 233.628906 52.929688 233.707031 53.234375 233.40625 53.167969 C 233.167969 53.113281 233.21875 52.972656 233.703125 50.164062 C 233.746094 49.902344 234.066406 49.964844 234.074219 50.207031 C 234.089844 51.246094 234.136719 51.890625 233.710938 52.765625 Z M 233.710938 52.765625 " fill-opacity="1" fill-rule="nonzero"/><path fill="#000000" d="M 64.597656 53.875 C 65.628906 54.332031 62.636719 54.5625 60.878906 57.710938 C 58.429688 62.101562 61.304688 67.34375 61.320312 67.445312 C 61.390625 67.890625 61.136719 67.941406 60.929688 67.660156 C 57.535156 63 58.585938 55.507812 64.597656 53.875 Z M 64.597656 53.875 " fill-opacity="1" fill-rule="nonzero"/><path fill="#000000" d="M 70.78125 76.070312 C 72.101562 75.625 71.5625 77.023438 82.144531 78.980469 C 82.792969 79.101562 85.191406 79.265625 85.039062 79.628906 C 84.742188 80.332031 75.015625 79.1875 70.78125 76.070312 Z M 70.78125 76.070312 " fill-opacity="1" fill-rule="nonzero"/><path fill="#000000" d="M 154.914062 53.351562 C 153.4375 54.316406 149.882812 58.25 148.8125 60.207031 C 148.691406 60.433594 148.359375 60.277344 148.46875 60.050781 C 148.671875 59.632812 148.773438 59.179688 149.042969 58.777344 C 153.433594 52.277344 155.722656 52.820312 154.914062 53.351562 Z M 154.914062 53.351562 " fill-opacity="1" fill-rule="nonzero"/><path fill="#000000" d="M 160.953125 55.375 C 159.992188 55.054688 163.515625 51.59375 163.980469 51.605469 C 165.242188 51.648438 161.652344 54.324219 160.953125 55.375 Z M 160.953125 55.375 " fill-opacity="1" fill-rule="nonzero"/><path fill="#000000" d="M 157.269531 69.628906 C 153.898438 68.34375 153.140625 68.832031 153.089844 67.878906 C 153.074219 67.570312 153.226562 67.398438 153.503906 67.46875 C 158.335938 68.722656 158.140625 69.964844 157.269531 69.628906 Z M 157.269531 69.628906 " fill-opacity="1" fill-rule="nonzero"/><path fill="#000000" d="M 157.585938 76.597656 C 157.585938 77.609375 157.433594 77.34375 155.992188 74.820312 C 155.640625 74.207031 157.640625 74.667969 157.585938 76.597656 Z M 157.585938 76.597656 " fill-opacity="1" fill-rule="nonzero"/><path fill="#000000" d="M 163.101562 74.65625 C 163.015625 75.902344 162.953125 74.398438 161.507812 72.210938 C 161.476562 72.164062 161.277344 71.609375 161.355469 71.578125 C 161.917969 71.355469 163.089844 73.664062 163.101562 74.65625 Z M 163.101562 74.65625 " fill-opacity="1" fill-rule="nonzero"/><path fill="#000000" d="M 145.339844 75.832031 C 145.152344 76.492188 142.433594 75.101562 139.21875 74.984375 C 136.75 74.894531 134.40625 74.828125 132.613281 75.441406 C 132.253906 75.5625 132.339844 75.167969 132.375 75.113281 C 133.535156 73.121094 145.675781 74.683594 145.339844 75.832031 Z M 145.339844 75.832031 " fill-opacity="1" fill-rule="nonzero"/></g></g></svg>