<svg xmlns="http://www.w3.org/2000/svg" xmlns:xlink="http://www.w3.org/1999/xlink" width="378" zoomAndPan="magnify" viewBox="0 0 283.5 283.500005" height="378" preserveAspectRatio="xMidYMid meet" version="1.0"><defs><clipPath id="a4e7ee103f"><path d="M 0 0 L 283 0 L 283 283 L 0 283 Z M 0 0 " clip-rule="nonzero"/></clipPath><clipPath id="beb7d61ce2"><path d="M 9 209 L 274.046875 209 L 274.046875 266.558594 L 9 266.558594 Z M 9 209 " clip-rule="nonzero"/></clipPath><clipPath id="2f7bdc3702"><rect x="0" width="283" y="0" height="283"/></clipPath></defs><path fill="#ffffff" d="M 0 0 L 283 0 L 283 283 L 0 283 Z M 0 0 " fill-opacity="1" fill-rule="nonzero"/><g transform="matrix(1, 0, 0, 1, 0, 0.000000000000005262)"><g clip-path="url(#2f7bdc3702)"><g clip-path="url(#a4e7ee103f)"><rect x="-62.37" width="408.24" fill="#ffffff" height="408.240007" y="-62.370001" fill-opacity="1"/></g><path fill="#020202" d="M 130.671875 213.636719 C 129.640625 212.105469 128.597656 210.550781 127.546875 208.972656 C 132.300781 208.859375 137.128906 208.804688 142.011719 208.804688 C 146.144531 208.804688 150.230469 208.847656 154.261719 208.941406 C 149.988281 215.375 145.605469 221.976562 141.1875 228.742188 C 137.539062 223.585938 134.074219 218.667969 130.671875 213.636719 Z M 130.671875 213.636719 " fill-opacity="1" fill-rule="nonzero"/><g clip-path="url(#beb7d61ce2)"><path fill="#020202" d="M 274.023438 237.660156 C 273.980469 253.671875 215.570312 266.273438 141.558594 266.234375 C 67.933594 266.195312 9.003906 253.441406 9.085938 237.558594 C 9.160156 223.492188 57.210938 211.597656 119.15625 209.230469 C 121.011719 212.03125 122.878906 214.824219 124.761719 217.605469 C 128.765625 223.554688 132.921875 229.398438 137.164062 235.40625 C 139.21875 238.304688 143.546875 238.199219 145.46875 235.210938 C 145.476562 235.207031 145.484375 235.191406 145.492188 235.1875 C 151.3125 226.21875 157.027344 217.648438 162.675781 209.167969 C 225.894531 211.347656 274.054688 223.265625 274.015625 237.660156 Z M 274.023438 237.660156 " fill-opacity="1" fill-rule="nonzero"/></g><path fill="#020202" d="M 213.4375 61.9375 C 204.386719 33.066406 178.554688 12.03125 149.167969 9.609375 C 146.542969 9.394531 143.933594 9.289062 141.40625 9.289062 C 117.363281 9.289062 97.453125 19.105469 82.226562 38.460938 C 69.441406 54.707031 64.398438 72.558594 67.21875 91.519531 C 69.4375 106.445312 75.796875 119.886719 83.875 135.917969 C 97.464844 162.863281 113.355469 187.765625 127.546875 208.980469 C 128.597656 210.550781 129.640625 212.105469 130.671875 213.640625 C 134.074219 218.675781 137.539062 223.59375 141.1875 228.746094 C 145.605469 221.984375 149.988281 215.382812 154.261719 208.949219 C 155.261719 207.445312 156.257812 205.957031 157.242188 204.476562 C 167.027344 189.8125 176.257812 175.960938 185.796875 160.601562 C 196.640625 143.15625 205.589844 124.746094 212.390625 105.875 C 217.722656 91.082031 218.066406 76.714844 213.4375 61.945312 Z M 185.261719 71.550781 C 185.246094 95.941406 165.964844 115.136719 141.53125 115.082031 C 117.234375 115.019531 97.78125 95.589844 97.804688 71.402344 C 97.832031 47.414062 117.726562 27.5625 141.679688 27.617188 C 165.804688 27.675781 185.277344 47.300781 185.261719 71.554688 Z M 185.261719 71.550781 " fill-opacity="1" fill-rule="nonzero"/></g></g></svg>