<svg xmlns="http://www.w3.org/2000/svg" xmlns:xlink="http://www.w3.org/1999/xlink" width="378" zoomAndPan="magnify" viewBox="0 0 283.5 283.500005" height="378" preserveAspectRatio="xMidYMid meet" version="1.0"><defs><clipPath id="6f8673eda0"><path d="M 0 0 L 283 0 L 283 283 L 0 283 Z M 0 0 " clip-rule="nonzero"/></clipPath><clipPath id="d4f7e1fd67"><path d="M 44.410156 28.300781 L 238.34375 28.300781 L 238.34375 264 L 44.410156 264 Z M 44.410156 28.300781 " clip-rule="nonzero"/></clipPath><clipPath id="dd9c8d0689"><rect x="0" width="283" y="0" height="283"/></clipPath></defs><path fill="#ffffff" d="M 0 0 L 283 0 L 283 283 L 0 283 Z M 0 0 " fill-opacity="1" fill-rule="nonzero"/><g transform="matrix(1, 0, 0, 1, 0, 0.000000000000005262)"><g clip-path="url(#dd9c8d0689)"><g clip-path="url(#6f8673eda0)"><rect x="-62.37" width="408.24" fill="#ffffff" height="408.240007" y="-62.370001" fill-opacity="1"/></g><g clip-path="url(#d4f7e1fd67)"><path fill="#000000" d="M 103.246094 60.339844 C 106.484375 60.339844 109.121094 57.699219 109.121094 54.457031 L 109.121094 34.421875 C 109.121094 31.179688 106.484375 28.539062 103.246094 28.539062 L 95.699219 28.539062 C 92.464844 28.539062 89.824219 31.179688 89.824219 34.421875 L 89.824219 54.457031 C 89.824219 57.699219 92.464844 60.339844 95.699219 60.339844 Z M 151.601562 34.421875 L 151.601562 54.457031 C 151.601562 57.699219 154.242188 60.339844 157.476562 60.339844 L 165.023438 60.339844 C 168.257812 60.339844 170.898438 57.699219 170.898438 54.457031 L 170.898438 34.421875 C 170.898438 31.179688 168.257812 28.539062 165.023438 28.539062 L 157.476562 28.539062 C 154.238281 28.539062 151.601562 31.183594 151.601562 34.421875 Z M 165.761719 97.390625 L 165.761719 120.417969 C 165.761719 120.6875 165.984375 120.90625 166.253906 120.90625 L 189.238281 120.90625 C 189.507812 120.90625 189.726562 120.6875 189.726562 120.417969 L 189.726562 97.390625 C 189.726562 97.117188 189.507812 96.898438 189.238281 96.898438 L 166.253906 96.898438 C 165.984375 96.898438 165.761719 97.117188 165.761719 97.390625 Z M 116.433594 97.390625 L 116.433594 120.417969 C 116.433594 120.6875 116.65625 120.90625 116.925781 120.90625 L 139.910156 120.90625 C 140.179688 120.90625 140.398438 120.6875 140.398438 120.417969 L 140.398438 97.390625 C 140.398438 97.117188 140.179688 96.898438 139.910156 96.898438 L 116.925781 96.898438 C 116.65625 96.898438 116.433594 97.117188 116.433594 97.390625 Z M 67.597656 120.90625 L 90.582031 120.90625 C 90.851562 120.90625 91.070312 120.6875 91.070312 120.417969 L 91.070312 97.390625 C 91.070312 97.117188 90.851562 96.898438 90.582031 96.898438 L 67.597656 96.898438 C 67.328125 96.898438 67.109375 97.117188 67.109375 97.390625 L 67.109375 120.417969 C 67.109375 120.6875 67.328125 120.90625 67.597656 120.90625 Z M 91.070312 163.753906 L 91.070312 140.726562 C 91.070312 140.457031 90.851562 140.238281 90.582031 140.238281 L 67.597656 140.238281 C 67.328125 140.238281 67.109375 140.457031 67.109375 140.726562 L 67.109375 163.753906 C 67.109375 164.023438 67.328125 164.246094 67.597656 164.246094 L 90.582031 164.246094 C 90.851562 164.246094 91.070312 164.027344 91.070312 163.753906 Z M 140.398438 163.753906 L 140.398438 140.726562 C 140.398438 140.457031 140.179688 140.238281 139.910156 140.238281 L 116.925781 140.238281 C 116.65625 140.238281 116.4375 140.457031 116.4375 140.726562 L 116.4375 163.753906 C 116.4375 164.023438 116.65625 164.246094 116.925781 164.246094 L 139.910156 164.246094 C 140.179688 164.246094 140.398438 164.027344 140.398438 163.753906 Z M 161.214844 183.394531 C 161.214844 183.667969 160.996094 183.886719 160.726562 183.886719 L 63.0625 183.886719 C 52.792969 183.886719 44.390625 175.46875 44.390625 165.179688 L 44.390625 66.03125 C 44.390625 55.742188 52.882812 47.324219 63.0625 47.324219 L 81.996094 47.324219 C 82.265625 47.324219 82.484375 47.542969 82.484375 47.8125 L 82.484375 54.585938 C 82.554688 61.828125 88.457031 67.695312 95.699219 67.695312 L 103.246094 67.695312 C 110.53125 67.695312 116.460938 61.707031 116.460938 54.582031 L 116.464844 47.8125 C 116.464844 47.542969 116.683594 47.324219 116.953125 47.324219 L 143.769531 47.324219 C 144.039062 47.324219 144.261719 47.542969 144.261719 47.8125 L 144.261719 54.585938 C 144.332031 61.828125 150.234375 67.695312 157.476562 67.695312 L 165.023438 67.695312 C 172.308594 67.695312 178.238281 61.707031 178.238281 54.582031 L 178.242188 47.8125 C 178.242188 47.542969 178.460938 47.324219 178.730469 47.324219 L 193.773438 47.324219 C 204.03125 47.324219 212.445312 55.765625 212.445312 66.03125 L 212.445312 165.179688 C 212.445312 174.828125 205.058594 182.832031 195.667969 183.789062 C 195.382812 183.820312 195.132812 183.597656 195.128906 183.308594 L 195.042969 176.988281 C 195.039062 176.742188 195.214844 176.535156 195.460938 176.496094 C 200.941406 175.671875 205.195312 170.886719 205.195312 165.179688 L 205.195312 75.25 C 205.195312 74.980469 204.976562 74.761719 204.707031 74.761719 L 52.128906 74.761719 C 51.859375 74.761719 51.640625 74.980469 51.640625 75.25 L 51.640625 165.179688 C 51.640625 171.460938 56.792969 176.625 63.0625 176.625 L 160.6875 176.625 C 160.957031 176.625 161.175781 176.84375 161.175781 177.113281 Z M 205.980469 200.730469 C 204.578125 192.449219 193.902344 189.835938 188.84375 196.539062 C 188.5625 196.910156 187.972656 196.71875 187.964844 196.25 L 187.308594 150.355469 C 185.964844 146.179688 182.03125 143.390625 177.648438 143.515625 C 173.238281 143.644531 169.453125 146.691406 168.378906 150.976562 C 168.378906 150.976562 168.511719 178.800781 168.773438 216.335938 C 168.777344 216.921875 167.917969 217.011719 167.800781 216.433594 C 165.832031 206.550781 161.222656 190.261719 150.417969 196.152344 C 148.183594 197.371094 148.617188 201.6875 148.617188 206.644531 C 148.613281 213.046875 148.367188 226.964844 149.546875 240.851562 C 149.554688 240.910156 149.566406 240.957031 149.589844 241.007812 C 151.175781 244.609375 156.941406 253.871094 163.339844 260.890625 C 165.167969 262.894531 167.5 263.925781 170.207031 263.925781 L 218.304688 263.925781 C 220.921875 263.925781 223.171875 262.96875 224.988281 261.085938 L 233.5625 252.210938 C 233.640625 252.132812 233.683594 252.039062 233.695312 251.929688 L 236.757812 226.136719 C 237.636719 218.742188 241.113281 209.492188 233.433594 204.667969 C 230.210938 202.640625 226.085938 203.027344 223.296875 205.480469 C 222.988281 205.753906 222.507812 205.546875 222.488281 205.136719 C 222.082031 196.933594 211.34375 194.03125 206.875 200.917969 C 206.628906 201.292969 206.054688 201.171875 205.980469 200.730469 Z M 205.980469 200.730469 " fill-opacity="1" fill-rule="evenodd"/></g></g></g></svg>