<svg xmlns="http://www.w3.org/2000/svg" xmlns:xlink="http://www.w3.org/1999/xlink" width="378" zoomAndPan="magnify" viewBox="0 0 283.5 283.500005" height="378" preserveAspectRatio="xMidYMid meet" version="1.0"><defs><clipPath id="0309c669f1"><path d="M 0 0 L 283 0 L 283 283 L 0 283 Z M 0 0 " clip-rule="nonzero"/></clipPath><clipPath id="031fdee529"><path d="M 9.945312 9 L 272.765625 9 L 272.765625 274 L 9.945312 274 Z M 9.945312 9 " clip-rule="nonzero"/></clipPath><clipPath id="1e758d1456"><rect x="0" width="283" y="0" height="283"/></clipPath></defs><path fill="#ffffff" d="M 0 0 L 283 0 L 283 283 L 0 283 Z M 0 0 " fill-opacity="1" fill-rule="nonzero"/><g transform="matrix(1, 0, 0, 1, 0, 0.000000000000005262)"><g clip-path="url(#1e758d1456)"><g clip-path="url(#0309c669f1)"><rect x="-62.37" width="408.24" fill="#ffffff" height="408.240007" y="-62.370001" fill-opacity="1"/></g><path fill="#000000" d="M 51.847656 162.40625 L 72.75 162.40625 C 75.644531 162.40625 77.996094 160.054688 77.996094 157.152344 L 77.996094 136.226562 C 77.996094 133.324219 75.648438 130.972656 72.75 130.972656 L 51.847656 130.972656 C 48.949219 130.972656 46.601562 133.324219 46.601562 136.226562 L 46.601562 157.152344 C 46.601562 160.054688 48.949219 162.40625 51.847656 162.40625 Z M 51.847656 162.40625 " fill-opacity="1" fill-rule="nonzero"/><path fill="#000000" d="M 51.847656 205.667969 L 72.75 205.667969 C 75.644531 205.667969 77.996094 203.316406 77.996094 200.414062 L 77.996094 179.488281 C 77.996094 176.585938 75.648438 174.234375 72.75 174.234375 L 51.847656 174.234375 C 48.949219 174.234375 46.601562 176.585938 46.601562 179.488281 L 46.601562 200.414062 C 46.601562 203.316406 48.949219 205.667969 51.847656 205.667969 Z M 51.847656 205.667969 " fill-opacity="1" fill-rule="nonzero"/><path fill="#000000" d="M 51.847656 248.929688 L 72.75 248.929688 C 75.644531 248.929688 77.996094 246.578125 77.996094 243.675781 L 77.996094 222.75 C 77.996094 219.847656 75.648438 217.496094 72.75 217.496094 L 51.847656 217.496094 C 48.949219 217.496094 46.601562 219.847656 46.601562 222.75 L 46.601562 243.675781 C 46.601562 246.578125 48.949219 248.929688 51.847656 248.929688 Z M 51.847656 248.929688 " fill-opacity="1" fill-rule="nonzero"/><path fill="#000000" d="M 104.554688 162.40625 L 125.453125 162.40625 C 128.351562 162.40625 130.703125 160.054688 130.703125 157.152344 L 130.703125 136.226562 C 130.703125 133.324219 128.351562 130.972656 125.453125 130.972656 L 104.554688 130.972656 C 101.652344 130.972656 99.304688 133.324219 99.304688 136.226562 L 99.304688 157.152344 C 99.304688 160.054688 101.65625 162.40625 104.554688 162.40625 Z M 104.554688 162.40625 " fill-opacity="1" fill-rule="nonzero"/><path fill="#000000" d="M 104.554688 205.667969 L 125.453125 205.667969 C 128.351562 205.667969 130.703125 203.316406 130.703125 200.414062 L 130.703125 179.488281 C 130.703125 176.585938 128.351562 174.234375 125.453125 174.234375 L 104.554688 174.234375 C 101.652344 174.234375 99.304688 176.585938 99.304688 179.488281 L 99.304688 200.414062 C 99.304688 203.316406 101.65625 205.667969 104.554688 205.667969 Z M 104.554688 205.667969 " fill-opacity="1" fill-rule="nonzero"/><path fill="#000000" d="M 104.554688 248.929688 L 125.453125 248.929688 C 128.351562 248.929688 130.703125 246.578125 130.703125 243.675781 L 130.703125 222.75 C 130.703125 219.847656 128.351562 217.496094 125.453125 217.496094 L 104.554688 217.496094 C 101.652344 217.496094 99.304688 219.847656 99.304688 222.75 L 99.304688 243.675781 C 99.304688 246.578125 101.65625 248.929688 104.554688 248.929688 Z M 104.554688 248.929688 " fill-opacity="1" fill-rule="nonzero"/><path fill="#000000" d="M 157.257812 162.40625 L 178.160156 162.40625 C 181.058594 162.40625 183.40625 160.054688 183.40625 157.152344 L 183.40625 136.226562 C 183.40625 133.324219 181.058594 130.972656 178.160156 130.972656 L 157.257812 130.972656 C 154.359375 130.972656 152.011719 133.324219 152.011719 136.226562 L 152.011719 157.152344 C 152.011719 160.054688 154.359375 162.40625 157.257812 162.40625 Z M 157.257812 162.40625 " fill-opacity="1" fill-rule="nonzero"/><path fill="#000000" d="M 178.160156 217.496094 L 157.257812 217.496094 C 154.359375 217.496094 152.011719 219.847656 152.011719 222.75 L 152.011719 243.675781 C 152.011719 246.578125 154.359375 248.929688 157.257812 248.929688 L 178.160156 248.929688 C 181.058594 248.929688 183.40625 246.578125 183.40625 243.675781 L 183.40625 222.75 C 183.40625 219.847656 181.058594 217.496094 178.160156 217.496094 Z M 178.160156 217.496094 " fill-opacity="1" fill-rule="nonzero"/><path fill="#000000" d="M 209.964844 162.40625 L 230.863281 162.40625 C 233.761719 162.40625 236.113281 160.054688 236.113281 157.152344 L 236.113281 136.226562 C 236.113281 133.324219 233.761719 130.972656 230.863281 130.972656 L 209.964844 130.972656 C 207.066406 130.972656 204.714844 133.324219 204.714844 136.226562 L 204.714844 157.152344 C 204.714844 160.054688 207.066406 162.40625 209.964844 162.40625 Z M 209.964844 162.40625 " fill-opacity="1" fill-rule="nonzero"/><path fill="#000000" d="M 209.964844 205.667969 L 230.863281 205.667969 C 233.761719 205.667969 236.113281 203.316406 236.113281 200.414062 L 236.113281 179.488281 C 236.113281 176.585938 233.761719 174.234375 230.863281 174.234375 L 209.964844 174.234375 C 207.066406 174.234375 204.714844 176.585938 204.714844 179.488281 L 204.714844 200.414062 C 204.714844 203.316406 207.066406 205.667969 209.964844 205.667969 Z M 209.964844 205.667969 " fill-opacity="1" fill-rule="nonzero"/><g clip-path="url(#031fdee529)"><path fill="#000000" d="M 211.117188 9.101562 C 206.195312 9.101562 202.207031 13.097656 202.207031 18.023438 L 202.207031 35.957031 L 80.964844 35.957031 L 80.964844 18.023438 C 80.964844 13.097656 76.976562 9.101562 72.054688 9.101562 C 67.128906 9.101562 63.140625 13.097656 63.140625 18.023438 L 63.140625 35.957031 L 35.046875 35.957031 C 21.207031 35.957031 9.945312 47.230469 9.945312 61.085938 L 9.945312 248.800781 C 9.945312 262.65625 21.207031 273.929688 35.046875 273.929688 L 247.664062 273.929688 C 261.507812 273.929688 272.765625 262.65625 272.765625 248.800781 L 272.765625 61.085938 C 272.765625 47.230469 261.507812 35.957031 247.664062 35.957031 L 220.03125 35.957031 L 220.03125 18.023438 C 220.03125 13.097656 216.042969 9.101562 211.117188 9.101562 Z M 63.140625 48.761719 L 63.140625 59.839844 C 63.140625 64.769531 67.128906 68.765625 72.054688 68.765625 C 76.976562 68.765625 80.964844 64.769531 80.964844 59.839844 L 80.964844 48.761719 C 84.195312 51.367188 86.261719 55.363281 86.261719 59.839844 C 86.261719 67.699219 79.902344 74.066406 72.050781 74.066406 C 64.203125 74.066406 57.839844 67.699219 57.839844 59.839844 C 57.84375 55.363281 59.910156 51.367188 63.140625 48.761719 Z M 260.398438 248.800781 C 260.398438 255.828125 254.6875 261.546875 247.664062 261.546875 L 35.046875 261.546875 C 28.027344 261.546875 22.3125 255.828125 22.3125 248.800781 L 22.3125 118.355469 L 260.398438 118.355469 Z M 225.328125 59.839844 C 225.328125 67.699219 218.964844 74.066406 211.117188 74.066406 C 203.269531 74.066406 196.90625 67.699219 196.90625 59.839844 C 196.90625 55.363281 198.972656 51.367188 202.203125 48.761719 L 202.203125 59.839844 C 202.203125 64.769531 206.195312 68.761719 211.117188 68.761719 C 216.039062 68.761719 220.03125 64.769531 220.03125 59.839844 L 220.03125 48.757812 C 223.261719 51.367188 225.328125 55.363281 225.328125 59.839844 Z M 225.328125 59.839844 " fill-opacity="1" fill-rule="nonzero"/></g><path fill="#000000" d="M 166.054688 208.441406 L 190.960938 183.507812 C 193.375 181.089844 193.375 177.167969 190.960938 174.75 C 188.546875 172.332031 184.632812 172.332031 182.214844 174.75 L 166.054688 190.929688 L 159.566406 184.433594 C 157.152344 182.015625 153.234375 182.015625 150.820312 184.433594 C 148.40625 186.851562 148.40625 190.769531 150.820312 193.1875 Z M 166.054688 208.441406 " fill-opacity="1" fill-rule="nonzero"/></g></g></svg>